<mxfile host="app.diagrams.net" agent="Mozilla/5.0 (Windows NT 10.0; Win64; x64; rv:143.0) Gecko/20100101 Firefox/143.0" version="28.2.5">
  <diagram name="Page-1" id="ZAJxCy9UpNBgk7UO9xpd">
    <mxGraphModel dx="1515" dy="1517" grid="1" gridSize="10" guides="1" tooltips="1" connect="1" arrows="1" fold="1" page="1" pageScale="1" pageWidth="827" pageHeight="1169" math="0" shadow="0">
      <root>
        <mxCell id="0" />
        <mxCell id="1" parent="0" />
        <mxCell id="fRqiLNEErDv1-o9UYtsq-18" value="" style="ellipse;shape=cloud;whiteSpace=wrap;html=1;align=center;" vertex="1" parent="1">
          <mxGeometry x="-40" y="-10" width="680" height="230" as="geometry" />
        </mxCell>
        <mxCell id="fRqiLNEErDv1-o9UYtsq-42" value="Server container" style="verticalAlign=top;align=left;spacingTop=8;spacingLeft=2;spacingRight=12;shape=cube;size=10;direction=south;fontStyle=4;html=1;whiteSpace=wrap;" vertex="1" parent="1">
          <mxGeometry x="290" y="70" width="260" height="90" as="geometry" />
        </mxCell>
        <mxCell id="fRqiLNEErDv1-o9UYtsq-29" value="ORM" style="html=1;dropTarget=0;whiteSpace=wrap;" vertex="1" parent="1">
          <mxGeometry x="300" y="110" width="90" height="40" as="geometry" />
        </mxCell>
        <mxCell id="fRqiLNEErDv1-o9UYtsq-30" value="" style="shape=module;jettyWidth=8;jettyHeight=4;" vertex="1" parent="fRqiLNEErDv1-o9UYtsq-29">
          <mxGeometry x="1" width="20" height="20" relative="1" as="geometry">
            <mxPoint x="-27" y="7" as="offset" />
          </mxGeometry>
        </mxCell>
        <mxCell id="fRqiLNEErDv1-o9UYtsq-40" style="edgeStyle=orthogonalEdgeStyle;rounded=0;orthogonalLoop=1;jettySize=auto;html=1;exitX=0;exitY=0.5;exitDx=0;exitDy=0;entryX=1;entryY=0.5;entryDx=0;entryDy=0;" edge="1" parent="1" source="fRqiLNEErDv1-o9UYtsq-32" target="fRqiLNEErDv1-o9UYtsq-29">
          <mxGeometry relative="1" as="geometry" />
        </mxCell>
        <mxCell id="fRqiLNEErDv1-o9UYtsq-41" value="code" style="edgeLabel;html=1;align=center;verticalAlign=middle;resizable=0;points=[];" vertex="1" connectable="0" parent="fRqiLNEErDv1-o9UYtsq-40">
          <mxGeometry x="0.3709" y="-1" relative="1" as="geometry">
            <mxPoint x="11" y="-9" as="offset" />
          </mxGeometry>
        </mxCell>
        <mxCell id="fRqiLNEErDv1-o9UYtsq-64" style="edgeStyle=orthogonalEdgeStyle;rounded=0;orthogonalLoop=1;jettySize=auto;html=1;exitX=0.75;exitY=0;exitDx=0;exitDy=0;" edge="1" parent="1" source="fRqiLNEErDv1-o9UYtsq-32" target="fRqiLNEErDv1-o9UYtsq-44">
          <mxGeometry relative="1" as="geometry" />
        </mxCell>
        <mxCell id="fRqiLNEErDv1-o9UYtsq-66" value="HTTPS" style="edgeLabel;html=1;align=center;verticalAlign=middle;resizable=0;points=[];" vertex="1" connectable="0" parent="fRqiLNEErDv1-o9UYtsq-64">
          <mxGeometry x="-0.0306" relative="1" as="geometry">
            <mxPoint y="-6" as="offset" />
          </mxGeometry>
        </mxCell>
        <mxCell id="fRqiLNEErDv1-o9UYtsq-32" value="Server" style="html=1;dropTarget=0;whiteSpace=wrap;" vertex="1" parent="1">
          <mxGeometry x="430" y="110" width="100" height="40" as="geometry" />
        </mxCell>
        <mxCell id="fRqiLNEErDv1-o9UYtsq-33" value="" style="shape=module;jettyWidth=8;jettyHeight=4;" vertex="1" parent="fRqiLNEErDv1-o9UYtsq-32">
          <mxGeometry x="1" width="20" height="20" relative="1" as="geometry">
            <mxPoint x="-27" y="7" as="offset" />
          </mxGeometry>
        </mxCell>
        <mxCell id="fRqiLNEErDv1-o9UYtsq-34" value="Чийсь Комп&#39;ютер" style="text;align=center;fontStyle=1;verticalAlign=middle;spacingLeft=3;spacingRight=3;strokeColor=none;rotatable=0;points=[[0,0.5],[1,0.5]];portConstraint=eastwest;html=1;" vertex="1" parent="1">
          <mxGeometry x="220" y="30" width="80" height="26" as="geometry" />
        </mxCell>
        <mxCell id="fRqiLNEErDv1-o9UYtsq-35" value="" style="group" vertex="1" connectable="0" parent="1">
          <mxGeometry x="70" y="70" width="120" height="90" as="geometry" />
        </mxCell>
        <mxCell id="fRqiLNEErDv1-o9UYtsq-25" value="DB container" style="verticalAlign=top;align=left;spacingTop=8;spacingLeft=2;spacingRight=12;shape=cube;size=10;direction=south;fontStyle=4;html=1;whiteSpace=wrap;" vertex="1" parent="fRqiLNEErDv1-o9UYtsq-35">
          <mxGeometry width="119.99999999999999" height="90" as="geometry" />
        </mxCell>
        <mxCell id="fRqiLNEErDv1-o9UYtsq-27" value="DB" style="html=1;dropTarget=0;whiteSpace=wrap;" vertex="1" parent="fRqiLNEErDv1-o9UYtsq-35">
          <mxGeometry x="10.909090909090908" y="40" width="87.27272727272727" height="40" as="geometry" />
        </mxCell>
        <mxCell id="fRqiLNEErDv1-o9UYtsq-28" value="" style="shape=module;jettyWidth=8;jettyHeight=4;" vertex="1" parent="fRqiLNEErDv1-o9UYtsq-27">
          <mxGeometry x="1" width="20" height="20" relative="1" as="geometry">
            <mxPoint x="-27" y="7" as="offset" />
          </mxGeometry>
        </mxCell>
        <mxCell id="fRqiLNEErDv1-o9UYtsq-36" style="edgeStyle=orthogonalEdgeStyle;rounded=0;orthogonalLoop=1;jettySize=auto;html=1;exitX=0;exitY=0.5;exitDx=0;exitDy=0;entryX=1;entryY=0.5;entryDx=0;entryDy=0;" edge="1" parent="1" source="fRqiLNEErDv1-o9UYtsq-29" target="fRqiLNEErDv1-o9UYtsq-27">
          <mxGeometry relative="1" as="geometry" />
        </mxCell>
        <mxCell id="fRqiLNEErDv1-o9UYtsq-37" value="SQL over TCP/IP" style="edgeLabel;html=1;align=center;verticalAlign=middle;resizable=0;points=[];" vertex="1" connectable="0" parent="fRqiLNEErDv1-o9UYtsq-36">
          <mxGeometry x="0.3004" y="1" relative="1" as="geometry">
            <mxPoint x="26" y="-11" as="offset" />
          </mxGeometry>
        </mxCell>
        <mxCell id="fRqiLNEErDv1-o9UYtsq-44" value="&lt;div&gt;&amp;lt;&amp;lt;external&amp;gt;&amp;gt;&lt;/div&gt;&lt;div&gt;Map Service&lt;/div&gt;" style="verticalAlign=top;align=left;spacingTop=8;spacingLeft=2;spacingRight=12;shape=cube;size=10;direction=south;fontStyle=4;html=1;whiteSpace=wrap;" vertex="1" parent="1">
          <mxGeometry x="460" y="-40" width="90" height="50" as="geometry" />
        </mxCell>
        <mxCell id="fRqiLNEErDv1-o9UYtsq-45" value="&lt;div&gt;&amp;lt;&amp;lt;external&amp;gt;&amp;gt;&lt;/div&gt;&lt;div&gt;Payment Provider&lt;/div&gt;" style="verticalAlign=top;align=left;spacingTop=8;spacingLeft=2;spacingRight=12;shape=cube;size=10;direction=south;fontStyle=4;html=1;whiteSpace=wrap;" vertex="1" parent="1">
          <mxGeometry x="430" y="210" width="120" height="50" as="geometry" />
        </mxCell>
        <mxCell id="fRqiLNEErDv1-o9UYtsq-52" style="edgeStyle=orthogonalEdgeStyle;rounded=0;orthogonalLoop=1;jettySize=auto;html=1;exitX=0;exitY=0;exitDx=32.5;exitDy=180;exitPerimeter=0;entryX=1;entryY=0.25;entryDx=0;entryDy=0;" edge="1" parent="1" source="fRqiLNEErDv1-o9UYtsq-50" target="fRqiLNEErDv1-o9UYtsq-32">
          <mxGeometry relative="1" as="geometry" />
        </mxCell>
        <mxCell id="fRqiLNEErDv1-o9UYtsq-54" value="HTTPS" style="edgeLabel;html=1;align=center;verticalAlign=middle;resizable=0;points=[];" vertex="1" connectable="0" parent="fRqiLNEErDv1-o9UYtsq-52">
          <mxGeometry x="-0.1141" relative="1" as="geometry">
            <mxPoint as="offset" />
          </mxGeometry>
        </mxCell>
        <mxCell id="fRqiLNEErDv1-o9UYtsq-50" value="Client&#39;s device (web page)" style="verticalAlign=top;align=left;spacingTop=8;spacingLeft=2;spacingRight=12;shape=cube;size=10;direction=south;fontStyle=4;html=1;whiteSpace=wrap;" vertex="1" parent="1">
          <mxGeometry x="620" y="87.5" width="180" height="55" as="geometry" />
        </mxCell>
        <mxCell id="fRqiLNEErDv1-o9UYtsq-55" style="edgeStyle=orthogonalEdgeStyle;rounded=0;orthogonalLoop=1;jettySize=auto;html=1;exitX=-0.024;exitY=0.883;exitDx=0;exitDy=0;exitPerimeter=0;entryX=0;entryY=0;entryDx=20;entryDy=0;entryPerimeter=0;" edge="1" parent="1" source="fRqiLNEErDv1-o9UYtsq-50" target="fRqiLNEErDv1-o9UYtsq-44">
          <mxGeometry relative="1" as="geometry">
            <Array as="points">
              <mxPoint x="641" y="-20" />
            </Array>
          </mxGeometry>
        </mxCell>
        <mxCell id="fRqiLNEErDv1-o9UYtsq-62" value="HTTPS" style="edgeLabel;html=1;align=center;verticalAlign=middle;resizable=0;points=[];" vertex="1" connectable="0" parent="fRqiLNEErDv1-o9UYtsq-55">
          <mxGeometry x="-0.6527" y="-1" relative="1" as="geometry">
            <mxPoint as="offset" />
          </mxGeometry>
        </mxCell>
        <mxCell id="fRqiLNEErDv1-o9UYtsq-56" style="edgeStyle=orthogonalEdgeStyle;rounded=0;orthogonalLoop=1;jettySize=auto;html=1;exitX=0.996;exitY=0.916;exitDx=0;exitDy=0;exitPerimeter=0;entryX=0;entryY=0;entryDx=20;entryDy=0;entryPerimeter=0;" edge="1" parent="1" source="fRqiLNEErDv1-o9UYtsq-50" target="fRqiLNEErDv1-o9UYtsq-45">
          <mxGeometry relative="1" as="geometry" />
        </mxCell>
        <mxCell id="fRqiLNEErDv1-o9UYtsq-61" value="HTTPS" style="edgeLabel;html=1;align=center;verticalAlign=middle;resizable=0;points=[];" vertex="1" connectable="0" parent="fRqiLNEErDv1-o9UYtsq-56">
          <mxGeometry x="-0.3064" y="-1" relative="1" as="geometry">
            <mxPoint as="offset" />
          </mxGeometry>
        </mxCell>
        <mxCell id="fRqiLNEErDv1-o9UYtsq-63" style="edgeStyle=orthogonalEdgeStyle;rounded=0;orthogonalLoop=1;jettySize=auto;html=1;exitX=0;exitY=0;exitDx=0;exitDy=55;exitPerimeter=0;entryX=0.645;entryY=1.013;entryDx=0;entryDy=0;entryPerimeter=0;" edge="1" parent="1" source="fRqiLNEErDv1-o9UYtsq-45" target="fRqiLNEErDv1-o9UYtsq-32">
          <mxGeometry relative="1" as="geometry" />
        </mxCell>
        <mxCell id="fRqiLNEErDv1-o9UYtsq-68" value="HTTPS" style="edgeLabel;html=1;align=center;verticalAlign=middle;resizable=0;points=[];" vertex="1" connectable="0" parent="fRqiLNEErDv1-o9UYtsq-63">
          <mxGeometry x="-0.5104" y="-1" relative="1" as="geometry">
            <mxPoint as="offset" />
          </mxGeometry>
        </mxCell>
      </root>
    </mxGraphModel>
  </diagram>
</mxfile>
